<svg xmlns="http://www.w3.org/2000/svg" width="50" height="50" viewBox="326 358 50 50"><g data-name="Gruppe 16128"><path d="M332 358h38a6 6 0 0 1 6 6v38a6 6 0 0 1-6 6h-38a6 6 0 0 1-6-6v-38a6 6 0 0 1 6-6z" fill="#569cd4" fill-rule="evenodd" data-name="Rechteck 16874"/><g data-name="Icon ionic-ios-arrow-dropright"><path d="M347.448 377.523c.528-.387 1.393-.387 1.92 0l6.708 4.945c.513.377.527.986.042 1.374l-6.61 4.872a1.632 1.632 0 0 1-.963.295c-.344 0-.696-.099-.956-.29-.527-.387-.534-1.018 0-1.41l5.618-4.19-5.759-4.19c-.534-.383-.534-1.013 0-1.406Z" fill="#fff" fill-rule="evenodd" data-name="Pfad 1961"/><path d="M338.375 383.125c0 6.905 5.595 12.5 12.5 12.5s12.5-5.595 12.5-12.5-5.595-12.5-12.5-12.5-12.5 5.595-12.5 12.5Zm1.923 0c0-2.825 1.1-5.48 3.101-7.476a10.486 10.486 0 0 1 7.476-3.1c2.825 0 5.48 1.099 7.476 3.1a10.486 10.486 0 0 1 3.1 7.476c0 2.825-1.099 5.48-3.1 7.476a10.486 10.486 0 0 1-7.476 3.1c-2.825 0-5.48-1.099-7.476-3.1a10.486 10.486 0 0 1-3.1-7.476Z" fill="#fff" fill-rule="evenodd" data-name="Pfad 1962"/></g></g></svg>