<svg xmlns="http://www.w3.org/2000/svg" width="33" height="33" viewBox="142 211.95 33 33"><g data-name="switch"><path d="M142 228.4a16.5 16.5 0 1 1 0 .1z" fill="#569cd4" fill-rule="evenodd" data-name="received_613861535908405"/><g data-name="exchange (2)"><path d="M164.614 224.927h-10.647l1.993-1.994a.605.605 0 1 0-.856-.856l-3.027 3.027a.605.605 0 0 0 0 .856l3.027 3.028a.604.604 0 0 0 .856 0 .605.605 0 0 0 0-.857l-1.993-1.993h10.647a.605.605 0 0 0 0-1.211Z" fill="#fff" fill-rule="evenodd" data-name="XMLID_17_"/><path d="M162.015 228.131a.605.605 0 0 0-.857.857l1.994 1.993h-10.647a.605.605 0 0 0 0 1.211h10.647l-1.993 1.994a.605.605 0 1 0 .856.856l3.027-3.027a.605.605 0 0 0 0-.857l-3.027-3.027Z" fill="#fff" fill-rule="evenodd" data-name="XMLID_18_"/></g></g></svg>