<svg xmlns="http://www.w3.org/2000/svg" width="32" height="24" viewBox="43.5 151 32 24"><g data-name="Gruppe 16506"><g data-name="Icon feather-credit-card"><path d="M46.41 151h26.18c1.608 0 2.91 1.343 2.91 3v18c0 1.657-1.302 3-2.91 3H46.41c-1.608 0-2.91-1.343-2.91-3v-18c0-1.657 1.302-3 2.91-3Z" stroke-linejoin="round" stroke-linecap="round" stroke-width="2.5" stroke="#569cd4" fill="transparent" data-name="Pfad 2177"/></g><path d="M50.99 161.78h16.52a.89.89 0 0 0 .63-1.52l-4.61-4.71a.9.9 0 0 0-1.28 1.26l3.1 3.18H50.99a.9.9 0 0 0 0 1.79Zm16.52 3.01H50.99a.91.91 0 0 0-.83.55.93.93 0 0 0 .19 1.01l4.62 4.7a.89.89 0 0 0 1.26 0 .9.9 0 0 0 0-1.27l-3.13-3.18h14.41a.9.9 0 1 0 0-1.8Z" fill="#569cd4" fill-rule="evenodd" data-name="Pfad 2178"/></g></svg>