<svg xmlns="http://www.w3.org/2000/svg" width="27" height="26.946" viewBox="247 15.001 27 26.946"><g data-name="cpu_7134209"><path d="M265.917 22.184c-.317-.189-.686-.258-1.046-.275l-7.2.017a.343.343 0 0 0-.222.086c-.532.523-3.24 3.163-3.335 3.214a.63.63 0 0 0-.197.455v7.131c0 1.192.986 2.203 2.212 2.212h8.742a2.215 2.215 0 0 0 2.203-2.212v-8.691c-.008-.823-.454-1.569-1.157-1.937Zm-.128 10.628a.931.931 0 0 1-.918.926h-8.742c-.506-.009-.926-.429-.918-.926v-6.866l2.743-2.742h6.917a.918.918 0 0 1 .918.917v8.691Z" fill-rule="evenodd" data-name="Pfad 2131"/><path d="M268.394 15h-15.788c-3.095.01-5.606 2.512-5.606 5.606v15.72c0 3.095 2.511 5.598 5.606 5.606.18-.026 3.137.043 3.197 0 2.588-.008 7.148.017 9.728 0h2.855A5.62 5.62 0 0 0 274 36.326v-15.72a5.619 5.619 0 0 0-5.606-5.605Zm4.32 7.955h-2.211a.642.642 0 0 0-.643.643c0 .36.283.643.643.643h2.211v3.583h-2.211a.642.642 0 1 0 0 1.285h2.211v3.583h-2.211a.637.637 0 0 0-.643.643c0 .351.283.643.643.643h2.211v2.348a4.324 4.324 0 0 1-4.32 4.32h-2.383V38.47a.642.642 0 0 0-.642-.643.637.637 0 0 0-.643.643v2.177h-3.583V38.47a.642.642 0 1 0-1.286 0v2.177h-3.583V38.47a.637.637 0 0 0-.643-.643.642.642 0 0 0-.642.643v2.177h-2.383a4.324 4.324 0 0 1-4.32-4.32v-2.348h2.22a.642.642 0 1 0 0-1.286h-2.22V29.11h2.22a.648.648 0 0 0 .643-.643.648.648 0 0 0-.643-.642h-2.22V24.24h2.22a.642.642 0 1 0 0-1.286h-2.22v-2.349a4.324 4.324 0 0 1 4.32-4.32h2.383v2.186a.642.642 0 1 0 1.286 0v-2.186h3.582v2.186c0 .352.292.643.643.643a.648.648 0 0 0 .643-.643v-2.186h3.583v2.186a.642.642 0 1 0 1.285 0v-2.186h2.383a4.324 4.324 0 0 1 4.32 4.32v2.349Z" fill-rule="evenodd" data-name="Pfad 2132"/></g></svg>