<svg xmlns="http://www.w3.org/2000/svg" width="37.001" height="29.274" viewBox="3860.052 5142.889 37.001 29.274"><path d="M3884.668 5171.616a1.969 1.969 0 0 1-.232-2.578l.172-.205 5.864-6.115-23.729-.001c-1.003 0-1.83-.751-1.952-1.721l-.015-.248c0-1.002.75-1.83 1.72-1.952l.247-.015h28.339c1.646 0 2.529 1.875 1.585 3.135l-.164.194-9.053 9.446a1.96 1.96 0 0 1-1.42.607c-.49 0-.98-.182-1.362-.547Zm-22.643-15.345c-1.647 0-2.53-1.876-1.586-3.137l.165-.193 9.052-9.446a1.968 1.968 0 0 1 3.014 2.518l-.172.205-5.864 6.115 23.729.002c1.003 0 1.83.75 1.952 1.72l.015.247c0 1.004-.75 1.832-1.72 1.953l-.247.016h-28.338Z" fill="#569cd4" fill-rule="evenodd" data-name="Combined Shape"/></svg>