<svg xmlns="http://www.w3.org/2000/svg" width="20" height="19.96" viewBox="53 166.03 20 19.96"><g data-name="cpu_7134209"><g data-name="Pfad 2131"><path d="M67.013 171.35c-.235-.139-.508-.19-.775-.202l-5.333.012a.254.254 0 0 0-.165.064c-.394.387-2.4 2.343-2.47 2.38a.467.467 0 0 0-.146.337v5.283c0 .882.73 1.631 1.638 1.638h6.476a1.64 1.64 0 0 0 1.632-1.638v-6.438a1.631 1.631 0 0 0-.857-1.435Zm-.096 7.874a.69.69 0 0 1-.679.685h-6.476a.69.69 0 0 1-.68-.685v-5.086l2.032-2.032h5.124a.68.68 0 0 1 .68.68v6.438Z" fill="#569cd4" fill-rule="evenodd"/><path d="M67.013 171.35c-.235-.139-.508-.19-.775-.202l-5.333.012a.254.254 0 0 0-.165.064c-.394.387-2.4 2.343-2.47 2.38a.467.467 0 0 0-.146.337v5.283c0 .882.73 1.631 1.638 1.638h6.476a1.64 1.64 0 0 0 1.632-1.638v-6.438a1.631 1.631 0 0 0-.857-1.435Zm-.096 7.874a.69.69 0 0 1-.679.685h-6.476a.69.69 0 0 1-.68-.685v-5.086l2.032-2.032h5.124a.68.68 0 0 1 .68.68v6.438Z" stroke-linejoin="round" stroke-linecap="round" stroke="#569cd4" fill="transparent"/></g><g data-name="Pfad 2132"><path d="M68.848 166.03H57.152A4.158 4.158 0 0 0 53 170.182v11.645a4.158 4.158 0 0 0 4.152 4.152c.134-.019 2.324.032 2.369 0 1.917-.006 5.295.013 7.206 0h2.114A4.163 4.163 0 0 0 73 181.827v-11.645a4.162 4.162 0 0 0-4.152-4.152Zm3.2 5.892H70.41a.476.476 0 0 0-.477.476c0 .267.21.476.477.476h1.638v2.654H70.41a.476.476 0 1 0 0 .953h1.638v2.654H70.41a.472.472 0 0 0-.477.476c0 .26.21.476.477.476h1.638v1.74c0 1.765-1.435 3.2-3.2 3.2h-1.765v-1.613a.476.476 0 0 0-.477-.476.472.472 0 0 0-.476.476v1.613h-2.654v-1.613a.476.476 0 1 0-.952 0v1.613H59.87v-1.613a.472.472 0 0 0-.476-.476c-.26 0-.477.21-.477.476v1.613h-1.765a3.203 3.203 0 0 1-3.2-3.2v-1.74h1.645a.476.476 0 1 0 0-.952h-1.645v-2.654h1.645a.48.48 0 0 0 .476-.476.48.48 0 0 0-.476-.477h-1.645v-2.654h1.645a.476.476 0 1 0 0-.952h-1.645v-1.74c0-1.765 1.435-3.2 3.2-3.2h1.765v1.62a.476.476 0 1 0 .952 0v-1.62h2.655v1.62c0 .26.216.476.476.476a.48.48 0 0 0 .476-.477v-1.619h2.654v1.62a.476.476 0 1 0 .953 0v-1.62h1.765c1.765 0 3.2 1.435 3.2 3.2v1.74Z" fill="#569cd4" fill-rule="evenodd"/><path d="M68.848 166.03H57.152A4.158 4.158 0 0 0 53 170.182v11.645a4.158 4.158 0 0 0 4.152 4.152c.134-.019 2.324.032 2.369 0 1.917-.006 5.295.013 7.206 0h2.114A4.163 4.163 0 0 0 73 181.827v-11.645a4.162 4.162 0 0 0-4.152-4.152Zm3.2 5.892H70.41a.476.476 0 0 0-.477.476c0 .267.21.476.477.476h1.638v2.654H70.41a.476.476 0 1 0 0 .953h1.638v2.654H70.41a.472.472 0 0 0-.477.476c0 .26.21.476.477.476h1.638v1.74c0 1.765-1.435 3.2-3.2 3.2h-1.765v-1.613a.476.476 0 0 0-.477-.476.472.472 0 0 0-.476.476v1.613h-2.654v-1.613a.476.476 0 1 0-.952 0v1.613H59.87v-1.613a.472.472 0 0 0-.476-.476c-.26 0-.477.21-.477.476v1.613h-1.765a3.203 3.203 0 0 1-3.2-3.2v-1.74h1.645a.476.476 0 1 0 0-.952h-1.645v-2.654h1.645a.48.48 0 0 0 .476-.476.48.48 0 0 0-.476-.477h-1.645v-2.654h1.645a.476.476 0 1 0 0-.952h-1.645v-1.74c0-1.765 1.435-3.2 3.2-3.2h1.765v1.62a.476.476 0 1 0 .952 0v-1.62h2.655v1.62c0 .26.216.476.476.476a.48.48 0 0 0 .476-.477v-1.619h2.654v1.62a.476.476 0 1 0 .953 0v-1.62h1.765c1.765 0 3.2 1.435 3.2 3.2v1.74Z" stroke-linejoin="round" stroke-linecap="round" stroke="#569cd4" fill="transparent"/></g></g></svg>