<svg xmlns="http://www.w3.org/2000/svg" width="28.012" height="28.012" viewBox="45 301.5 28.012 28.012"><g data-name="Icons"><g data-name="Pfad 2185"><path d="M47.334 311.771a.467.467 0 0 0-.467.467v.934a.467.467 0 0 0 .934 0v-.934a.467.467 0 0 0-.467-.467Z" fill="#569cd4" fill-rule="evenodd"/><path d="M47.334 311.771a.467.467 0 0 0-.467.467v.934a.467.467 0 0 0 .934 0v-.934a.467.467 0 0 0-.467-.467Z" stroke-linejoin="round" stroke-linecap="round" stroke-width=".5" stroke="#569cd4" fill="transparent"/></g><g data-name="Pfad 2186"><path d="M47.334 314.572a.467.467 0 0 0-.467.467v.934a.467.467 0 0 0 .934 0v-.934a.467.467 0 0 0-.467-.467Z" fill="#569cd4" fill-rule="evenodd"/><path d="M47.334 314.572a.467.467 0 0 0-.467.467v.934a.467.467 0 0 0 .934 0v-.934a.467.467 0 0 0-.467-.467Z" stroke-linejoin="round" stroke-linecap="round" stroke-width=".5" stroke="#569cd4" fill="transparent"/></g><g data-name="Pfad 2187"><path d="M47.334 317.373a.467.467 0 0 0-.467.467v.934a.467.467 0 0 0 .934 0v-.934a.467.467 0 0 0-.467-.467Z" fill="#569cd4" fill-rule="evenodd"/><path d="M47.334 317.373a.467.467 0 0 0-.467.467v.934a.467.467 0 0 0 .934 0v-.934a.467.467 0 0 0-.467-.467Z" stroke-linejoin="round" stroke-linecap="round" stroke-width=".5" stroke="#569cd4" fill="transparent"/></g><g data-name="Pfad 2188"><path d="M47.334 320.174a.467.467 0 0 0-.467.467v.934a.467.467 0 0 0 .934 0v-.934a.467.467 0 0 0-.467-.467Z" fill="#569cd4" fill-rule="evenodd"/><path d="M47.334 320.174a.467.467 0 0 0-.467.467v.934a.467.467 0 0 0 .934 0v-.934a.467.467 0 0 0-.467-.467Z" stroke-linejoin="round" stroke-linecap="round" stroke-width=".5" stroke="#569cd4" fill="transparent"/></g><g data-name="Pfad 2189"><path d="M47.334 322.976a.467.467 0 0 0-.467.467v.933a.467.467 0 0 0 .934 0v-.933a.467.467 0 0 0-.467-.467Z" fill="#569cd4" fill-rule="evenodd"/><path d="M47.334 322.976a.467.467 0 0 0-.467.467v.933a.467.467 0 0 0 .934 0v-.933a.467.467 0 0 0-.467-.467Z" stroke-linejoin="round" stroke-linecap="round" stroke-width=".5" stroke="#569cd4" fill="transparent"/></g><g data-name="Pfad 2190"><path d="M47.334 325.777a.467.467 0 0 0-.467.467v.933a.467.467 0 0 0 .934 0v-.933a.467.467 0 0 0-.467-.467Z" fill="#569cd4" fill-rule="evenodd"/><path d="M47.334 325.777a.467.467 0 0 0-.467.467v.933a.467.467 0 0 0 .934 0v-.933a.467.467 0 0 0-.467-.467Z" stroke-linejoin="round" stroke-linecap="round" stroke-width=".5" stroke="#569cd4" fill="transparent"/></g><g data-name="Pfad 2191"><path d="M72.078 316.525v-4.287a2.326 2.326 0 0 0-.96-1.877l1.72-3.105a1.406 1.406 0 0 0-.548-1.902l-6.533-3.617a1.385 1.385 0 0 0-1.828.43 1.398 1.398 0 0 0-1.188-.667h-7.47a1.398 1.398 0 0 0-1.188.668 1.385 1.385 0 0 0-1.826-.432l-6.536 3.617a1.408 1.408 0 0 0-.546 1.906l1.52 2.744A2.33 2.33 0 0 0 45 312.238v14.94a2.337 2.337 0 0 0 2.334 2.334h22.41a2.337 2.337 0 0 0 2.334-2.335v-4.287a1.4 1.4 0 0 0 .934-1.315v-3.735a1.4 1.4 0 0 0-.934-1.315Zm-2.334-6.621h-.683a3.268 3.268 0 0 0-4.92-3.421v-1.575a3.274 3.274 0 0 0 3.175-1.241l2.513 1.391a3.255 3.255 0 0 0 1.079 3.757l-.639 1.153a2.316 2.316 0 0 0-.525-.064Zm-12.129 0a2.322 2.322 0 0 1-.83-2.585 2.334 2.334 0 0 1 4.555.717c0 .737-.35 1.43-.943 1.868h-2.782Zm4.502-2.869a3.268 3.268 0 1 0-5.792 2.869h-1.52v-4.706a3.268 3.268 0 0 0 2.763-2.764h2.876a3.268 3.268 0 0 0 2.764 2.764v4.706h-1.521a3.256 3.256 0 0 0 .43-2.869Zm-14.41 2.869-.602-1.089a3.241 3.241 0 0 0 1.167-1.699c.195-.677.165-1.4-.088-2.058l2.512-1.391a3.274 3.274 0 0 0 3.174 1.241v1.575a3.268 3.268 0 0 0-4.919 3.42h-1.243Zm2.214 0a2.324 2.324 0 0 1 3.95-2.214v2.214h-3.95Zm14.22-2.214a2.324 2.324 0 0 1 3.95 2.214h-3.95v-2.214Zm7.879-.884-.654 1.183a2.334 2.334 0 0 1-.71-2.474l1.184.656a.47.47 0 0 1 .18.635Zm-7.07-4.295a.457.457 0 0 1 .351.042l1.183.653a2.329 2.329 0 0 1-2.343.74v-.262l.525-.949a.467.467 0 0 1 .284-.225Zm-1.742.39v1.353a2.342 2.342 0 0 1-1.821-1.82h1.354c.258 0 .467.209.467.467Zm-7.937-.467h1.354a2.342 2.342 0 0 1-1.82 1.82v-1.353c0-.258.208-.467.466-.467Zm-2.558.117a.467.467 0 0 1 .633.183l.524.95v.262a2.327 2.327 0 0 1-2.342-.74l1.185-.655Zm-6.539 3.618 1.184-.654c.138.436.144.904.016 1.344-.125.44-.378.834-.726 1.13l-.654-1.18a.472.472 0 0 1 .18-.64Zm23.57 22.409h-22.41a1.4 1.4 0 0 1-1.4-1.4v-14.94a1.4 1.4 0 0 1 1.4-1.4h22.41a1.4 1.4 0 0 1 1.4 1.4v4.202h-4.668a1.4 1.4 0 0 0-1.4 1.4v3.735a1.4 1.4 0 0 0 1.4 1.4h4.668v4.202a1.4 1.4 0 0 1-1.4 1.401Zm2.334-7.003a.467.467 0 0 1-.467.467h-5.135a.467.467 0 0 1-.467-.467v-3.735c0-.258.209-.467.467-.467h5.135c.258 0 .467.21.467.467v3.735Z" fill="#569cd4" fill-rule="evenodd"/><path d="M72.078 316.525v-4.287a2.326 2.326 0 0 0-.96-1.877l1.72-3.105a1.406 1.406 0 0 0-.548-1.902l-6.533-3.617a1.385 1.385 0 0 0-1.828.43 1.398 1.398 0 0 0-1.188-.667h-7.47a1.398 1.398 0 0 0-1.188.668 1.385 1.385 0 0 0-1.826-.432l-6.536 3.617a1.408 1.408 0 0 0-.546 1.906l1.52 2.744A2.33 2.33 0 0 0 45 312.238v14.94a2.337 2.337 0 0 0 2.334 2.334h22.41a2.337 2.337 0 0 0 2.334-2.335v-4.287a1.4 1.4 0 0 0 .934-1.315v-3.735a1.4 1.4 0 0 0-.934-1.315Zm-2.334-6.621h-.683a3.268 3.268 0 0 0-4.92-3.421v-1.575a3.274 3.274 0 0 0 3.175-1.241l2.513 1.391a3.255 3.255 0 0 0 1.079 3.757l-.639 1.153a2.316 2.316 0 0 0-.525-.064Zm-12.129 0a2.322 2.322 0 0 1-.83-2.585 2.334 2.334 0 0 1 4.555.717c0 .737-.35 1.43-.943 1.868h-2.782Zm4.502-2.869a3.268 3.268 0 1 0-5.792 2.869h-1.52v-4.706a3.268 3.268 0 0 0 2.763-2.764h2.876a3.268 3.268 0 0 0 2.764 2.764v4.706h-1.521a3.256 3.256 0 0 0 .43-2.869Zm-14.41 2.869-.602-1.089a3.241 3.241 0 0 0 1.167-1.699c.195-.677.165-1.4-.088-2.058l2.512-1.391a3.274 3.274 0 0 0 3.174 1.241v1.575a3.268 3.268 0 0 0-4.919 3.42h-1.243Zm2.214 0a2.324 2.324 0 0 1 3.95-2.214v2.214h-3.95Zm14.22-2.214a2.324 2.324 0 0 1 3.95 2.214h-3.95v-2.214Zm7.879-.884-.654 1.183a2.334 2.334 0 0 1-.71-2.474l1.184.656a.47.47 0 0 1 .18.635Zm-7.07-4.295a.457.457 0 0 1 .351.042l1.183.653a2.329 2.329 0 0 1-2.343.74v-.262l.525-.949a.467.467 0 0 1 .284-.225Zm-1.742.39v1.353a2.342 2.342 0 0 1-1.821-1.82h1.354c.258 0 .467.209.467.467Zm-7.937-.467h1.354a2.342 2.342 0 0 1-1.82 1.82v-1.353c0-.258.208-.467.466-.467Zm-2.558.117a.467.467 0 0 1 .633.183l.524.95v.262a2.327 2.327 0 0 1-2.342-.74l1.185-.655Zm-6.539 3.618 1.184-.654c.138.436.144.904.016 1.344-.125.44-.378.834-.726 1.13l-.654-1.18a.472.472 0 0 1 .18-.64Zm23.57 22.409h-22.41a1.4 1.4 0 0 1-1.4-1.4v-14.94a1.4 1.4 0 0 1 1.4-1.4h22.41a1.4 1.4 0 0 1 1.4 1.4v4.202h-4.668a1.4 1.4 0 0 0-1.4 1.4v3.735a1.4 1.4 0 0 0 1.4 1.4h4.668v4.202a1.4 1.4 0 0 1-1.4 1.401Zm2.334-7.003a.467.467 0 0 1-.467.467h-5.135a.467.467 0 0 1-.467-.467v-3.735c0-.258.209-.467.467-.467h5.135c.258 0 .467.21.467.467v3.735Z" stroke-linejoin="round" stroke-linecap="round" stroke-width=".5" stroke="#569cd4" fill="transparent"/></g><g data-name="Pfad 2192"><path d="M68.343 318.307a1.4 1.4 0 1 0 0 2.801 1.4 1.4 0 0 0 0-2.801Zm0 1.867a.467.467 0 1 1 0-.933.467.467 0 0 1 0 .933Z" fill="#569cd4" fill-rule="evenodd"/><path d="M68.343 318.307a1.4 1.4 0 1 0 0 2.801 1.4 1.4 0 0 0 0-2.801Zm0 1.867a.467.467 0 1 1 0-.933.467.467 0 0 1 0 .933Z" stroke-linejoin="round" stroke-linecap="round" stroke-width=".5" stroke="#569cd4" fill="transparent"/></g><g data-name="Pfad 2193"><path d="M59.006 317.84a.467.467 0 0 0 .467-.467v-.848a1.4 1.4 0 0 1 .933 1.315.467.467 0 0 0 .934 0 2.339 2.339 0 0 0-1.867-2.287v-.514a.467.467 0 0 0-.934 0v.514a2.334 2.334 0 0 0 .467 4.621 1.397 1.397 0 0 1 .467 2.716v-.848a.467.467 0 1 0-.934 0v.848a1.4 1.4 0 0 1-.934-1.315.467.467 0 1 0-.933 0 2.339 2.339 0 0 0 1.867 2.288v.513a.467.467 0 1 0 .934 0v-.513a2.334 2.334 0 0 0-.467-4.622 1.397 1.397 0 0 1-.467-2.716v.848c0 .258.209.467.467.467Z" fill="#569cd4" fill-rule="evenodd"/><path d="M59.006 317.84a.467.467 0 0 0 .467-.467v-.848a1.4 1.4 0 0 1 .933 1.315.467.467 0 0 0 .934 0 2.339 2.339 0 0 0-1.867-2.287v-.514a.467.467 0 0 0-.934 0v.514a2.334 2.334 0 0 0 .467 4.621 1.397 1.397 0 0 1 .467 2.716v-.848a.467.467 0 1 0-.934 0v.848a1.4 1.4 0 0 1-.934-1.315.467.467 0 1 0-.933 0 2.339 2.339 0 0 0 1.867 2.288v.513a.467.467 0 1 0 .934 0v-.513a2.334 2.334 0 0 0-.467-4.622 1.397 1.397 0 0 1-.467-2.716v.848c0 .258.209.467.467.467Z" stroke-linejoin="round" stroke-linecap="round" stroke-width=".5" stroke="#569cd4" fill="transparent"/></g></g></svg>