<svg xmlns="http://www.w3.org/2000/svg" width="26.671" height="26.67" viewBox="45.125 302.719 26.671 26.67"><g data-name="icons/ödemeler"><path d="M55.451 329.388a2.774 2.774 0 0 1-2.77-2.773l.054-10.707v-.104h-4.84a2.773 2.773 0 0 1-2.77-2.77v-5.281a5.04 5.04 0 0 1 5.693-4.991c.107-.028.223-.043.348-.043h17.86a2.773 2.773 0 0 1 2.77 2.77v21.13a2.773 2.773 0 0 1-2.77 2.77H55.45Zm-.601-24.07c.19.393.304.824.34 1.278l.012.214.017.466.02 1.162.016 2.04v4.824l-.052 11.311.012.082a.25.25 0 0 0 .236.174h13.575a.25.25 0 0 0 .248-.25v-21.13a.25.25 0 0 0-.248-.249h-14.22Zm-7.205 2.435v5.282l.013.078a.25.25 0 0 0 .237.171h4.776v-5.531a2.516 2.516 0 0 0-2.513-2.513 2.516 2.516 0 0 0-2.513 2.513Zm11.57 16.353a1.26 1.26 0 0 1-.158-2.51l.157-.01h3.019a1.26 1.26 0 0 1 .158 2.51l-.158.01h-3.019Zm0-6.037a1.26 1.26 0 0 1-.158-2.51l.157-.011h6.038a1.26 1.26 0 0 1 .158 2.511l-.158.01h-6.038Zm0-6.037a1.262 1.262 0 0 1-.158-2.512l.157-.01h6.038a1.26 1.26 0 0 1 .158 2.511l-.158.011h-6.038Z" fill="#569cd4" fill-rule="evenodd" data-name="Combined Shape"/></g></svg>