<svg xmlns="http://www.w3.org/2000/svg" width="45" height="45" viewBox="27 475 45 45"><g data-name="Instagram"><path d="M49.5 475c12.426 0 22.5 10.074 22.5 22.5S61.926 520 49.5 520 27 509.926 27 497.5 37.074 475 49.5 475Z" fill="#569cd4" fill-rule="evenodd" data-name="Pfad 2130"/><g data-name="Icon feather-instagram"><path d="M44 487h11a5.5 5.5 0 0 1 5.5 5.5v11A5.5 5.5 0 0 1 55 509H44a5.5 5.5 0 0 1-5.5-5.5v-11A5.5 5.5 0 0 1 44 487Z" stroke-linejoin="round" stroke-linecap="round" stroke-width="2.5" stroke="#fff" fill="transparent" data-name="Pfad 3"/><path d="M53.9 497.307a4.4 4.4 0 1 1-8.705 1.29 4.4 4.4 0 0 1 8.705-1.29Z" stroke-linejoin="round" stroke-linecap="round" stroke-width="2.5" stroke="#fff" fill="transparent" data-name="Pfad 4"/><path d="M55.55 491.95h0" stroke-linejoin="round" stroke-linecap="round" stroke-width="2.5" stroke="#fff" fill="transparent" data-name="Pfad 5"/></g></g></svg>