<svg xmlns="http://www.w3.org/2000/svg" width="45" height="45" viewBox="27 542.95 45 45"><g data-name="LinkedIN"><path d="M27 565.4a22.5 22.5 0 1 1 0 .1z" fill="#569cd4" fill-rule="evenodd" data-name="Ellipse 7"/><g data-name="Icon feather-linkedin"><path d="M53.6 560.917a6 6 0 0 1 6 6v7h-4v-7a2 2 0 0 0-4 0v7h-4v-7a6 6 0 0 1 6-6Z" stroke-linejoin="round" stroke-linecap="round" stroke-width="2" stroke="#fff" fill="transparent" data-name="Pfad 6"/><path d="M39.6 561.917h4v12h-4v-12Z" stroke-linejoin="round" stroke-linecap="round" stroke-width="2" stroke="#fff" fill="transparent" data-name="Pfad 7"/><path d="M43.6 557.25a2 2 0 1 1-4 0 2 2 0 0 1 4 0Z" stroke-linejoin="round" stroke-linecap="round" stroke-width="2" stroke="#fff" fill="transparent" data-name="Pfad 8"/></g></g></svg>