<svg xmlns="http://www.w3.org/2000/svg" width="33.661" height="47.4" viewBox="320 339.3 33.661 47.4"><g data-name="map point"><g data-name="Gruppe 16183"><path d="M336.83 339.3c-9.28 0-16.83 7.442-16.83 16.59 0 12.442 16.83 30.81 16.83 30.81s16.831-18.368 16.831-30.81c0-9.148-7.55-16.59-16.83-16.59Z" fill="#569cd4" fill-rule="evenodd" data-name="Icon material-add-location"/><g data-name="Gruppe 16182"><path d="M331.682 366.895a2.938 2.938 0 0 1-2.935-2.935v-12.423a2.938 2.938 0 0 1 2.935-2.934h10.352a2.938 2.938 0 0 1 2.935 2.934v12.423a2.938 2.938 0 0 1-2.935 2.935h-10.352Zm-1.206-15.358v12.423c0 .665.54 1.207 1.206 1.207h10.352c.665 0 1.207-.542 1.207-1.207v-12.423c0-.665-.542-1.205-1.207-1.205h-10.352c-.665 0-1.206.54-1.206 1.205Zm2.241 11.217a.865.865 0 0 1-.108-1.721l.108-.008h4.141a.864.864 0 0 1 .109 1.723l-.109.006h-4.141Zm0-4.141a.866.866 0 0 1-.865-.865v-5.175c0-.477.389-.865.865-.865h8.282c.476 0 .864.388.864.865v5.175a.865.865 0 0 1-.864.865h-8.282Zm.865-1.728h6.552v-3.448h-6.552v3.448Z" fill="#fff" fill-rule="evenodd" data-name="Combined Shape"/></g></g></g></svg>