<svg xmlns="http://www.w3.org/2000/svg" width="31" height="22.003" viewBox="12 55.998 31 22.003"><path d="M12.98 59.697c-.604-.605-.98-.44-.98-1.359 0-.92.376-.754.98-1.36a3.33 3.33 0 0 1 2.36-.98h24.32c.92 0 1.754.376 2.36.98.604.606.98.44.98 1.36 0 .92-.376.754-.98 1.36a3.33 3.33 0 0 1-2.36.98H15.34a3.33 3.33 0 0 1-2.36-.98Zm26.68 13.624H15.34a3.33 3.33 0 0 0-2.36.981c-.604.605-.98.44-.98 1.36 0 .918.376.754.98 1.359a3.33 3.33 0 0 0 2.36.98h24.32a3.33 3.33 0 0 0 2.36-.98c.604-.605.98-.44.98-1.36 0-.919-.376-.754-.98-1.359a3.33 3.33 0 0 0-2.36-.98Zm0-8.661H15.34a3.33 3.33 0 0 0-2.36.98c-.604.605-.98.44-.98 1.36 0 .919.376.754.98 1.36a3.33 3.33 0 0 0 2.36.98h24.32a3.33 3.33 0 0 0 2.36-.98c.604-.606.98-.441.98-1.36 0-.92-.376-.755-.98-1.36a3.33 3.33 0 0 0-2.36-.98Z" fill="#333" fill-rule="evenodd" data-name="menu_8220629"/></svg>