<svg xmlns="http://www.w3.org/2000/svg" width="32.248" height="24.186" viewBox="197 417 32.248 24.186"><path d="M224.41 417h-22.573a4.837 4.837 0 0 0-4.837 4.837v14.512a4.837 4.837 0 0 0 4.837 4.837h6.45a1.612 1.612 0 1 0 0-3.225h-6.45c-.89 0-1.612-.722-1.612-1.612v-9.675h25.798v1.613a1.612 1.612 0 0 0 3.225 0v-6.45a4.837 4.837 0 0 0-4.837-4.837Zm1.613 6.45h-25.798v-1.613c0-.89.722-1.612 1.612-1.612h22.574c.89 0 1.612.722 1.612 1.612v1.613Z" fill="#569cd4" fill-rule="evenodd" data-name="Pfad 2070"/></svg>