<svg xmlns="http://www.w3.org/2000/svg" width="35" height="30.334" viewBox="42 301 35 30.334"><path d="M47.293 320.317a1.167 1.167 0 0 0-1.159-.385l-3.233.754a1.167 1.167 0 0 0-.85 1.475l2.528 8.344c.178.589.783.938 1.382.798l3.233-.754a1.167 1.167 0 0 0 .894-1.006c2.049-.008 5.822-.053 8.736-.263 2.016-.145 3.654-.422 4.248-.743 1.49-.804 6.221-4.092 7.602-6.1.675-.983.662-1.863.31-2.425-.428-.684-.933-1.089-1.515-1.296-.549-.196-1.193-.218-1.977-.012-.617.162-1.366.494-2.292.973a2.629 2.629 0 0 0-.71-.852c-.212-.17-.61-.374-1.175-.476-.88-.159-2.306-.121-3.806.577-.605.282-1.116.09-1.664-.129-.597-.238-1.218-.537-1.92-.747-1.633-.491-3.62-.103-5.409.612-1.25.501-2.4 1.145-3.223 1.655Zm-1.693 2.135.004.013 1.847 6.094-.956.224-1.85-6.107.955-.224Zm13.776.454c1.12-.618 3.086-1.734 3.128-1.757.161-.087.301-.181.414-.283.052-.046.108-.12.144-.17-.27-.029-1.546-.13-2.568.345-1.093.51-2.051.427-3.028.102-.69-.229-1.39-.612-2.212-.859-1.173-.352-2.587.03-3.87.545-1.363.545-2.588 1.283-3.306 1.753l1.403 4.629c1.785-.001 6-.03 9.175-.258 1.562-.113 2.848-.22 3.308-.469 1.175-.634 4.6-2.962 6.271-4.746.224-.24.598-.595.45-.824-.189-.295-.727.054-1.288.288-.91.377-2.057 1.017-3.544 1.861a8.178 8.178 0 0 1-.281.16c-.897.51-1.914 1.09-3.07 1.726-.518.285-1.254.406-2.04.373-.92-.04-1.916-.268-2.496-.433a1.167 1.167 0 0 1 .64-2.244c.454.13 1.233.315 1.955.346.31.013.61.027.815-.085Zm9.536-20.114c-2.049.007-5.822.053-8.736.263-2.016.145-3.654.42-4.249.742-1.49.804-6.22 4.093-7.601 6.1-.676.983-.662 1.864-.311 2.425.428.685.934 1.089 1.516 1.296.549.196 1.193.218 1.977.012.617-.162 1.365-.494 2.291-.973.152.3.385.589.711.852.211.17.61.374 1.175.476.88.16 2.305.121 3.805-.577.605-.282 1.117-.09 1.665.13.596.237 1.217.536 1.92.747 1.633.49 3.62.103 5.408-.613 1.252-.501 2.4-1.145 3.223-1.655.275.327.719.489 1.16.386l3.232-.755a1.167 1.167 0 0 0 .852-1.474l-2.53-8.345a1.167 1.167 0 0 0-1.381-.798l-3.233.755a1.167 1.167 0 0 0-.894 1.006Zm.607 2.331c-1.786.001-6 .03-9.175.259-1.562.112-2.848.22-3.308.468-1.175.634-4.6 2.962-6.271 4.747-.225.24-.599.594-.45.823.189.295.726-.054 1.288-.287.909-.378 2.056-1.018 3.544-1.862a4.657 4.657 0 0 1 .28-.16c.898-.51 1.915-1.09 3.071-1.726.517-.285 1.254-.406 2.04-.373.92.04 1.916.268 2.496.433a1.167 1.167 0 0 1-.64 2.244c-.454-.13-1.233-.315-1.955-.345-.31-.014-.61-.028-.815.085-1.12.617-2.118 1.18-3.007 1.681a1.201 1.201 0 0 1-.121.075 2.141 2.141 0 0 0-.415.284 1.138 1.138 0 0 0-.143.17c.27.028 1.546.13 2.567-.346 1.094-.51 2.052-.427 3.029-.102.689.23 1.39.612 2.212.86 1.173.352 2.587-.032 3.87-.546 1.363-.545 2.588-1.282 3.306-1.753l-1.403-4.629Zm3.88 4.759-.003-.013-1.847-6.094.956-.223 1.85 6.107-.955.223Z" fill="#569cd4" fill-rule="evenodd" data-name="Pfad 2072"/></svg>