<svg xmlns="http://www.w3.org/2000/svg" width="21.665" height="29.413" viewBox="44 311.091 21.665 29.413"><path d="M56.36 325.294a7.102 7.102 0 1 1 7.101-7.101 7.11 7.11 0 0 1-7.1 7.101Zm0-12.155a5.055 5.055 0 1 0 0 10.11 5.055 5.055 0 0 0 0-10.11Zm1.327 27.365H45.023L44 339.48c.008-6.823 5.537-12.352 12.36-12.36 2.752-.01 5.427.909 7.592 2.606.34.265.664.546.975.844l.737.71-1.42 1.475-.737-.71a10.212 10.212 0 0 0-7.146-2.878 10.33 10.33 0 0 0-10.265 9.29h11.591v2.047Z" fill="#569cd4" fill-rule="evenodd" data-name="Pfad 2065"/></svg>