<svg xmlns="http://www.w3.org/2000/svg" width="8.414" height="7.847" viewBox="0 2.495 8.414 7.847"><path d="M6.254 2.499c-.85-.051-1.575.483-1.981.483-.407 0-1.03-.458-1.703-.446-.876.013-1.69.509-2.134 1.297-.914 1.576-.241 3.915.648 5.199.432.635.953 1.334 1.639 1.31.648-.026.902-.42 1.69-.42.787 0 1.016.42 1.702.407.711-.013 1.156-.636 1.588-1.272.495-.724.698-1.423.711-1.461-.013-.013-1.372-.535-1.384-2.098-.013-1.309 1.067-1.932 1.117-1.97-.61-.902-1.562-1.004-1.893-1.03" fill-rule="evenodd" data-name="Pfad 2002"/></svg>