<svg xmlns="http://www.w3.org/2000/svg" width="45" height="45" viewBox="27 207 45 45"><g data-name="Phone"><path d="M49.5 207c12.426 0 22.5 10.074 22.5 22.5S61.926 252 49.5 252 27 241.926 27 229.5 37.074 207 49.5 207Z" fill="#569cd4" fill-rule="evenodd" data-name="Pfad 2128"/><path d="M59 234.974v3.01a2.005 2.005 0 0 1-.652 1.488c-.418.382-.977.57-1.541.52a19.926 19.926 0 0 1-8.678-3.081 19.59 19.59 0 0 1-6.034-6.022 19.836 19.836 0 0 1-3.087-8.701 2.005 2.005 0 0 1 .518-1.534c.38-.416.919-.654 1.483-.654h3.017a2.01 2.01 0 0 1 2.011 1.726c.127.964.364 1.91.704 2.82.276.734.1 1.56-.452 2.118l-1.278 1.274a16.074 16.074 0 0 0 6.034 6.022l1.277-1.275a2.014 2.014 0 0 1 2.122-.451c.912.34 1.86.575 2.826.702a2.008 2.008 0 0 1 1.73 2.038Z" stroke-linejoin="round" stroke-linecap="round" stroke-width="2" stroke="#fff" fill="transparent" data-name="Icon feather-phone"/></g></svg>