<svg xmlns="http://www.w3.org/2000/svg" width="35" height="35" viewBox="350 240 35 35"><g data-name="rocket button"><path d="M350 257.5a17.5 17.5 0 0 1 17.5-17.5 17.5 17.5 0 0 1 17.5 17.5 17.5 17.5 0 0 1-17.5 17.5 17.5 17.5 0 0 1-17.5-17.5z" fill="#569cd4" fill-rule="evenodd" data-name="Rechteck 16874"/><g data-name="rocket"><path d="M366.425 267.81v-8.078h1.43l-.001 8.078h-1.429Z" fill="#fff" fill-rule="evenodd" data-name="Pfad 167"/><path d="M374.718 266.293a.714.714 0 0 1-.935.065l-4.04-3.03.869-1.152 3.04 2.283.318-2.954-3.797-3.798a.714.714 0 0 1-.213-.505v-4.112a6.385 6.385 0 0 0-1.878-4.545l-.94-.94-.94.94a6.385 6.385 0 0 0-1.878 4.546v4.111c-.001.19-.077.371-.212.505l-3.798 3.798.328 2.964 3.04-2.283.87 1.152-4.04 3.03a.714.714 0 0 1-1.143-.495l-.505-4.546a.714.714 0 0 1 .197-.59l3.834-3.833-.005-3.813a7.8 7.8 0 0 1 2.303-5.556l.94-.94a1.428 1.428 0 0 1 2.02 0l.939.94a7.8 7.8 0 0 1 2.303 5.556l-.005 3.813 3.833 3.833c.153.154.228.37.202.586l-.505 4.545a.714.714 0 0 1-.202.425Z" fill="#fff" fill-rule="evenodd" data-name="Pfad 168"/></g></g></svg>