<svg xmlns="http://www.w3.org/2000/svg" width="29.245" height="29.245" viewBox="44.627 301.292 29.245 29.245"><g data-name="search_5012212"><path d="M69.381 301.542H49.618a4.746 4.746 0 0 0-4.741 4.74v19.764a4.746 4.746 0 0 0 4.74 4.741h19.764a4.746 4.746 0 0 0 4.741-4.74v-19.764a4.746 4.746 0 0 0-4.74-4.741Zm3.827 24.504a3.831 3.831 0 0 1-3.827 3.827H49.618a3.831 3.831 0 0 1-3.827-3.827v-19.763a3.831 3.831 0 0 1 3.827-3.827H69.38a3.831 3.831 0 0 1 3.827 3.827v19.763ZM59.5 307.254c-4.914 0-8.911 3.997-8.911 8.91 0 4.914 3.997 8.911 8.91 8.911a8.875 8.875 0 0 0 5.973-2.303.461.461 0 0 0 .054.065l2.104 2.104a.457.457 0 0 0 .646-.646l-2.104-2.104a.461.461 0 0 0-.065-.054 8.876 8.876 0 0 0 2.303-5.972c0-4.914-3.997-8.911-8.91-8.911Zm0 16.907c-4.41 0-7.997-3.587-7.997-7.996 0-4.41 3.587-7.997 7.997-7.997s7.996 3.587 7.996 7.997-3.587 7.996-7.996 7.996Zm0-13.156a5.16 5.16 0 1 0 0 10.32 5.16 5.16 0 0 0 0-10.32Zm0 9.405a4.246 4.246 0 1 1 0-8.491 4.246 4.246 0 0 1 0 8.491Zm-.781-5.483c0 .554.228.636.886.793.633.15 1.59.378 1.59 1.682a1.697 1.697 0 0 1-1.239 1.632v.368a.457.457 0 1 1-.913 0v-.368a1.697 1.697 0 0 1-1.238-1.632.457.457 0 1 1 .914 0 .78.78 0 1 0 1.561 0c0-.554-.228-.636-.886-.793-.633-.15-1.59-.378-1.59-1.682a1.697 1.697 0 0 1 1.239-1.632v-.368a.457.457 0 0 1 .913 0v.368a1.697 1.697 0 0 1 1.238 1.632.457.457 0 1 1-.914 0 .78.78 0 1 0-1.561 0Z" fill="#569cd4" fill-rule="evenodd"/><path d="M69.381 301.542H49.618a4.746 4.746 0 0 0-4.741 4.74v19.764a4.746 4.746 0 0 0 4.74 4.741h19.764a4.746 4.746 0 0 0 4.741-4.74v-19.764a4.746 4.746 0 0 0-4.74-4.741Zm3.827 24.504a3.831 3.831 0 0 1-3.827 3.827H49.618a3.831 3.831 0 0 1-3.827-3.827v-19.763a3.831 3.831 0 0 1 3.827-3.827H69.38a3.831 3.831 0 0 1 3.827 3.827v19.763ZM59.5 307.254c-4.914 0-8.911 3.997-8.911 8.91 0 4.914 3.997 8.911 8.91 8.911a8.875 8.875 0 0 0 5.973-2.303.461.461 0 0 0 .054.065l2.104 2.104a.457.457 0 0 0 .646-.646l-2.104-2.104a.461.461 0 0 0-.065-.054 8.876 8.876 0 0 0 2.303-5.972c0-4.914-3.997-8.911-8.91-8.911Zm0 16.907c-4.41 0-7.997-3.587-7.997-7.996 0-4.41 3.587-7.997 7.997-7.997s7.996 3.587 7.996 7.997-3.587 7.996-7.996 7.996Zm0-13.156a5.16 5.16 0 1 0 0 10.32 5.16 5.16 0 0 0 0-10.32Zm0 9.405a4.246 4.246 0 1 1 0-8.491 4.246 4.246 0 0 1 0 8.491Zm-.781-5.483c0 .554.228.636.886.793.633.15 1.59.378 1.59 1.682a1.697 1.697 0 0 1-1.239 1.632v.368a.457.457 0 1 1-.913 0v-.368a1.697 1.697 0 0 1-1.238-1.632.457.457 0 1 1 .914 0 .78.78 0 1 0 1.561 0c0-.554-.228-.636-.886-.793-.633-.15-1.59-.378-1.59-1.682a1.697 1.697 0 0 1 1.239-1.632v-.368a.457.457 0 0 1 .913 0v.368a1.697 1.697 0 0 1 1.238 1.632.457.457 0 1 1-.914 0 .78.78 0 1 0-1.561 0Z" stroke-linejoin="round" stroke-linecap="round" stroke-width=".5" stroke="#569cd4" fill="transparent"/></g></svg>