<svg xmlns="http://www.w3.org/2000/svg" width="32" height="26.074" viewBox="43 301.5 32 26.074"><g data-name="shopping_13952900"><g data-name="Pfad 2194"><path d="M53 316.944a1 1 0 0 1 1-1h4v-3.814a1 1 0 0 1 2 0v3.814h4a1 1 0 0 1 0 2h-4v3.815a1 1 0 1 1-2 0v-3.815h-4a1 1 0 0 1-1-1Z" fill="#569cd4" fill-rule="evenodd"/><path d="M53 316.944a1 1 0 0 1 1-1h4v-3.814a1 1 0 0 1 2 0v3.814h4a1 1 0 0 1 0 2h-4v3.815a1 1 0 1 1-2 0v-3.815h-4a1 1 0 0 1-1-1Z" stroke-linejoin="round" stroke-linecap="round" stroke-width=".5" stroke="#569cd4" fill="transparent"/></g><g data-name="Pfad 2195"><path d="M55.57 301.678a1 1 0 0 1 .252 1.391l-2.913 4.209H65.09l-2.913-4.209a1 1 0 1 1 1.644-1.138l3.702 5.347H74a1 1 0 0 1 .977 1.213l-3.656 16.724a3 3 0 0 1-2.931 2.359H49.61a3 3 0 0 1-2.93-2.36l-3.657-16.723a1 1 0 0 1 .977-1.213h6.476l3.702-5.347a1 1 0 0 1 1.391-.253Zm11.417 7.6h5.771l-3.391 15.51a1 1 0 0 1-.977.786H49.61a1 1 0 0 1-.977-.786l-3.39-15.51h21.744Z" fill="#569cd4" fill-rule="evenodd"/><path d="M55.57 301.678a1 1 0 0 1 .252 1.391l-2.913 4.209H65.09l-2.913-4.209a1 1 0 1 1 1.644-1.138l3.702 5.347H74a1 1 0 0 1 .977 1.213l-3.656 16.724a3 3 0 0 1-2.931 2.359H49.61a3 3 0 0 1-2.93-2.36l-3.657-16.723a1 1 0 0 1 .977-1.213h6.476l3.702-5.347a1 1 0 0 1 1.391-.253Zm11.417 7.6h5.771l-3.391 15.51a1 1 0 0 1-.977.786H49.61a1 1 0 0 1-.977-.786l-3.39-15.51h21.744Z" stroke-linejoin="round" stroke-linecap="round" stroke-width=".5" stroke="#569cd4" fill="transparent"/></g></g></svg>