<svg xmlns="http://www.w3.org/2000/svg" width="25.46" height="33.947" viewBox="46.77 299.027 25.46 33.947"><g data-name="travel-journal_16998086"><g data-name="Pfad 2211"><path d="M70.108 299.027H49.952a3.186 3.186 0 0 0-3.182 3.183v25.46a3.186 3.186 0 0 0 3.182 3.183h2.652a.53.53 0 1 0 0-1.061h-2.652a2.124 2.124 0 0 1-1.505-3.622c.405-.4.94-.622 1.505-.622H71.17v1.592H50.482a.53.53 0 1 0 0 1.06h3.183v4.244a.53.53 0 0 0 .848.424l1.804-1.352 1.804 1.352a.528.528 0 0 0 .555.05.53.53 0 0 0 .293-.474V328.2h12.2v1.59H60.03a.53.53 0 1 0 0 1.062H71.7a.53.53 0 0 0 .53-.53v-29.174c0-1.17-.952-2.122-2.122-2.122ZM47.83 325.3v-23.09c0-1.17.952-2.122 2.122-2.122v24.4c-.787 0-1.532.288-2.122.812Zm3.183-.812v-24.4h19.095c.585 0 1.06.476 1.06 1.061v23.339H51.014Zm6.895 6.895-1.273-.955a.528.528 0 0 0-.636 0l-1.273.955v-3.182h3.182v3.182Z" fill="#569cd4" fill-rule="evenodd"/><path d="M70.108 299.027H49.952a3.186 3.186 0 0 0-3.182 3.183v25.46a3.186 3.186 0 0 0 3.182 3.183h2.652a.53.53 0 1 0 0-1.061h-2.652a2.124 2.124 0 0 1-1.505-3.622c.405-.4.94-.622 1.505-.622H71.17v1.592H50.482a.53.53 0 1 0 0 1.06h3.183v4.244a.53.53 0 0 0 .848.424l1.804-1.352 1.804 1.352a.528.528 0 0 0 .555.05.53.53 0 0 0 .293-.474V328.2h12.2v1.59H60.03a.53.53 0 1 0 0 1.062H71.7a.53.53 0 0 0 .53-.53v-29.174c0-1.17-.952-2.122-2.122-2.122ZM47.83 325.3v-23.09c0-1.17.952-2.122 2.122-2.122v24.4c-.787 0-1.532.288-2.122.812Zm3.183-.812v-24.4h19.095c.585 0 1.06.476 1.06 1.061v23.339H51.014Zm6.895 6.895-1.273-.955a.528.528 0 0 0-.636 0l-1.273.955v-3.182h3.182v3.182Z" stroke-linejoin="round" stroke-linecap="round" stroke-width=".5" stroke="#569cd4" fill="transparent"/></g><g data-name="Pfad 2212"><path d="M63.168 307.268a3.174 3.174 0 0 0 1.105-2.406 3.186 3.186 0 0 0-3.182-3.183 3.186 3.186 0 0 0-3.183 3.183c0 .961.43 1.822 1.106 2.406-3.382.917-5.88 4.004-5.88 7.672 0 4.387 3.57 7.956 7.957 7.956 4.387 0 7.956-3.569 7.956-7.956 0-3.668-2.498-6.755-5.88-7.672Zm-2.077-4.528c1.17 0 2.122.952 2.122 2.122a2.12 2.12 0 0 1-1.592 2.046v-1.516a.53.53 0 1 0-1.06 0v1.516a2.12 2.12 0 0 1-1.592-2.046c0-1.17.952-2.122 2.122-2.122Zm0 19.096a6.903 6.903 0 0 1-6.896-6.896 6.903 6.903 0 0 1 6.896-6.895 6.903 6.903 0 0 1 6.895 6.895 6.903 6.903 0 0 1-6.895 6.896Z" fill="#569cd4" fill-rule="evenodd"/><path d="M63.168 307.268a3.174 3.174 0 0 0 1.105-2.406 3.186 3.186 0 0 0-3.182-3.183 3.186 3.186 0 0 0-3.183 3.183c0 .961.43 1.822 1.106 2.406-3.382.917-5.88 4.004-5.88 7.672 0 4.387 3.57 7.956 7.957 7.956 4.387 0 7.956-3.569 7.956-7.956 0-3.668-2.498-6.755-5.88-7.672Zm-2.077-4.528c1.17 0 2.122.952 2.122 2.122a2.12 2.12 0 0 1-1.592 2.046v-1.516a.53.53 0 1 0-1.06 0v1.516a2.12 2.12 0 0 1-1.592-2.046c0-1.17.952-2.122 2.122-2.122Zm0 19.096a6.903 6.903 0 0 1-6.896-6.896 6.903 6.903 0 0 1 6.896-6.895 6.903 6.903 0 0 1 6.895 6.895 6.903 6.903 0 0 1-6.895 6.896Z" stroke-linejoin="round" stroke-linecap="round" stroke-width=".5" stroke="#569cd4" fill="transparent"/></g><g data-name="Pfad 2213"><path d="M61.584 309.439a.53.53 0 0 0-.986 0l-1.43 3.577-3.578 1.431a.53.53 0 0 0 0 .986l3.577 1.43 1.431 3.578a.53.53 0 0 0 .986 0l1.43-3.577 3.578-1.431a.53.53 0 0 0 0-.986l-3.577-1.43-1.431-3.578Zm.826 6.524a.529.529 0 0 0-.296.296l-1.023 2.557-1.023-2.557a.529.529 0 0 0-.296-.296l-2.557-1.023 2.557-1.023a.529.529 0 0 0 .296-.296l1.023-2.557 1.023 2.557c.054.135.16.242.296.296l2.557 1.023-2.557 1.023Z" fill="#569cd4" fill-rule="evenodd"/><path d="M61.584 309.439a.53.53 0 0 0-.986 0l-1.43 3.577-3.578 1.431a.53.53 0 0 0 0 .986l3.577 1.43 1.431 3.578a.53.53 0 0 0 .986 0l1.43-3.577 3.578-1.431a.53.53 0 0 0 0-.986l-3.577-1.43-1.431-3.578Zm.826 6.524a.529.529 0 0 0-.296.296l-1.023 2.557-1.023-2.557a.529.529 0 0 0-.296-.296l-2.557-1.023 2.557-1.023a.529.529 0 0 0 .296-.296l1.023-2.557 1.023 2.557c.054.135.16.242.296.296l2.557 1.023-2.557 1.023Z" stroke-linejoin="round" stroke-linecap="round" stroke-width=".5" stroke="#569cd4" fill="transparent"/></g><g data-name="Ellipse 220"><path d="M60.1 315.427a.5.5 0 1 1 0 .1z" fill="#569cd4" fill-rule="evenodd"/><path d="M60.1 315.427a.5.5 0 1 1 0 .1z" stroke-linejoin="round" stroke-linecap="round" stroke-width=".5" stroke="#569cd4" fill="transparent"/></g></g></svg>