<svg xmlns="http://www.w3.org/2000/svg" width="45" height="45" viewBox="27 408 45 45"><g data-name="Twitter"><path d="M49.5 408c12.426 0 22.5 10.074 22.5 22.5S61.926 453 49.5 453 27 442.926 27 430.5 37.074 408 49.5 408Z" fill="#569cd4" fill-rule="evenodd" data-name="Pfad 2129"/><path d="M61.6 421.052a12.07 12.07 0 0 1-3.426 1.612c-1.346-1.494-3.514-2.019-5.43-1.312-1.916.706-3.172 2.493-3.144 4.474v1.054c-3.894.097-7.58-1.695-9.819-4.774 0 0-4.363 9.484 5.455 13.7a13.027 13.027 0 0 1-7.636 2.107c9.818 5.269 21.818 0 21.818-12.119a4.586 4.586 0 0 0-.087-.875 8.07 8.07 0 0 0 2.269-3.867Z" stroke-linejoin="round" stroke-linecap="round" stroke-width="2" stroke="#fff" fill="transparent" data-name="Icon feather-twitter"/></g></svg>