<svg xmlns="http://www.w3.org/2000/svg" width="27" height="26.999" viewBox="1.748 1.75 27 26.999"><g data-name="Pfad 168"><path d="M16.713 29.248a.964.964 0 0 1-.955-.83l-.964-6.749 1.929-.27.723 5.082 3.124-2.516v-7.252a.964.964 0 0 1 .28-.684l3.924-3.925a8.62 8.62 0 0 0 2.546-6.132V4.178h-1.794a8.62 8.62 0 0 0-6.133 2.546l-3.924 3.925a.964.964 0 0 1-.684.28H7.534L5.017 14.07l5.082.723-.27 1.929-6.75-.964a.964.964 0 0 1-.617-1.563L6.32 9.375A.964.964 0 0 1 7.071 9h7.319l3.635-3.645a10.53 10.53 0 0 1 7.5-3.105h1.795c1.065 0 1.928.863 1.928 1.928v1.794a10.53 10.53 0 0 1-3.105 7.502l-3.644 3.635v7.318a.964.964 0 0 1-.366.753l-4.822 3.857a.964.964 0 0 1-.598.211Z" fill="#35beae" fill-rule="evenodd"/><path d="M16.713 29.248a.964.964 0 0 1-.955-.83l-.964-6.749 1.929-.27.723 5.082 3.124-2.516v-7.252a.964.964 0 0 1 .28-.684l3.924-3.925a8.62 8.62 0 0 0 2.546-6.132V4.178h-1.794a8.62 8.62 0 0 0-6.133 2.546l-3.924 3.925a.964.964 0 0 1-.684.28H7.534L5.017 14.07l5.082.723-.27 1.929-6.75-.964a.964.964 0 0 1-.617-1.563L6.32 9.375A.964.964 0 0 1 7.071 9h7.319l3.635-3.645a10.53 10.53 0 0 1 7.5-3.105h1.795c1.065 0 1.928.863 1.928 1.928v1.794a10.53 10.53 0 0 1-3.105 7.502l-3.644 3.635v7.318a.964.964 0 0 1-.366.753l-4.822 3.857a.964.964 0 0 1-.598.211Z" stroke-linejoin="round" stroke-linecap="round" stroke="#569cd4" fill="transparent"/></g></svg>